<svg id="omni-logo-white-2" xmlns="http://www.w3.org/2000/svg" xmlns:xlink="http://www.w3.org/1999/xlink" width="113.171" height="34.994" viewBox="0 0 113.171 34.994">
  <defs>
    <linearGradient id="linear-gradient" x1="0.5" x2="0.5" y2="1" gradientUnits="objectBoundingBox">
      <stop offset="0" stop-color="#00b1ff"/>
      <stop offset="1" stop-color="#006cff"/>
    </linearGradient>
  </defs>
  <path id="Subtraction_1" data-name="Subtraction 1" d="M17.5,34.994a17.626,17.626,0,0,1-3.526-.355,17.4,17.4,0,0,1-6.256-2.633,17.548,17.548,0,0,1-6.339-7.7,17.409,17.409,0,0,1-1.02-3.284,17.667,17.667,0,0,1,0-7.052A17.4,17.4,0,0,1,2.988,7.714a17.548,17.548,0,0,1,7.7-6.339A17.41,17.41,0,0,1,13.971.355a17.668,17.668,0,0,1,7.053,0A17.4,17.4,0,0,1,27.28,2.988a17.548,17.548,0,0,1,6.339,7.7,17.409,17.409,0,0,1,1.02,3.284,17.667,17.667,0,0,1,0,7.052,17.4,17.4,0,0,1-2.633,6.256,17.548,17.548,0,0,1-7.7,6.339,17.409,17.409,0,0,1-3.284,1.02A17.626,17.626,0,0,1,17.5,34.994Zm0-30.542A12.985,12.985,0,0,0,10.2,6.679a13.084,13.084,0,0,0-4.726,5.74,13.028,13.028,0,0,0,1.2,12.372,13.084,13.084,0,0,0,5.74,4.726,13.028,13.028,0,0,0,12.372-1.2,13.084,13.084,0,0,0,4.727-5.74,13.028,13.028,0,0,0-1.2-12.372,13.084,13.084,0,0,0-5.74-4.726A12.964,12.964,0,0,0,17.5,4.451Z" fill="url(#linear-gradient)"/>
  <path id="Omni." d="M1341.056,231.256a9.507,9.507,0,0,0,4.582-1.094,8.071,8.071,0,0,0,3.183-3.038,8.944,8.944,0,0,0,0-8.778,8.077,8.077,0,0,0-3.183-3.038,10.141,10.141,0,0,0-9.164,0,8.072,8.072,0,0,0-3.182,3.038,8.941,8.941,0,0,0,0,8.778,8.071,8.071,0,0,0,3.182,3.038,9.509,9.509,0,0,0,4.582,1.094Zm0-4.447a3.317,3.317,0,0,1-1.795-.5,3.54,3.54,0,0,1-1.275-1.42,5.128,5.128,0,0,1,0-4.307,3.543,3.543,0,0,1,1.275-1.42,3.466,3.466,0,0,1,3.589,0,3.543,3.543,0,0,1,1.276,1.42,5.13,5.13,0,0,1,0,4.307,3.541,3.541,0,0,1-1.276,1.42,3.313,3.313,0,0,1-1.794.5h0Zm27.041-8.894a5.379,5.379,0,0,0-2.325.5,5.045,5.045,0,0,0-1.806,1.432,3.956,3.956,0,0,0-1.625-1.455,5.1,5.1,0,0,0-2.234-.477,4.663,4.663,0,0,0-3.5,1.42v-1.187h-4.853v12.736h5.1v-6.217a2.864,2.864,0,0,1,.44-1.77,1.406,1.406,0,0,1,1.163-.559q1.377,0,1.377,2.189v6.356h5.1v-6.217a2.861,2.861,0,0,1,.44-1.77,1.406,1.406,0,0,1,1.162-.559q1.377,0,1.377,2.189v6.356h5.1V223.62a6.031,6.031,0,0,0-1.343-4.284,4.693,4.693,0,0,0-3.578-1.42h0Zm15.71,0a5.566,5.566,0,0,0-2.054.373,4.7,4.7,0,0,0-1.67,1.118v-1.257h-4.853v12.736h5.1V224.9a2.944,2.944,0,0,1,.53-1.944,1.744,1.744,0,0,1,1.389-.617q1.512,0,1.512,2.189v6.356h5.1V223.62a5.905,5.905,0,0,0-1.388-4.284,4.9,4.9,0,0,0-3.668-1.42h0Zm7.268,12.968h5.1V218.148h-5.1Zm2.551-13.76a3.144,3.144,0,0,0,2.235-.78,2.606,2.606,0,0,0,.835-1.991,2.349,2.349,0,0,0-.835-1.863,3.3,3.3,0,0,0-2.235-.722,3.21,3.21,0,0,0-2.223.757,2.6,2.6,0,0,0,0,3.842,3.209,3.209,0,0,0,2.223.757Zm7.11,13.993a2.885,2.885,0,0,0,2.133-.85,2.953,2.953,0,0,0,.847-2.177,2.875,2.875,0,0,0-.847-2.154,3.166,3.166,0,0,0-4.266,0,2.877,2.877,0,0,0-.846,2.154,2.954,2.954,0,0,0,.846,2.177,2.885,2.885,0,0,0,2.133.85Z" transform="translate(-1290.546 -204.016)" fill="#fff" fill-rule="evenodd"/>
  <path id="Subtraction_2" data-name="Subtraction 2" d="M11.143,22.287A11.225,11.225,0,0,1,8.9,22.06a11.082,11.082,0,0,1-3.985-1.677,11.176,11.176,0,0,1-4.037-4.9,11.087,11.087,0,0,1-.649-2.092,11.252,11.252,0,0,1,0-4.492A11.082,11.082,0,0,1,1.9,4.913,11.176,11.176,0,0,1,6.806.876,11.088,11.088,0,0,1,8.9.226a11.252,11.252,0,0,1,4.492,0A11.082,11.082,0,0,1,17.374,1.9a11.176,11.176,0,0,1,4.037,4.9A11.087,11.087,0,0,1,22.06,8.9a11.252,11.252,0,0,1,0,4.492,11.082,11.082,0,0,1-1.677,3.985,11.176,11.176,0,0,1-4.9,4.037,11.087,11.087,0,0,1-2.092.649A11.226,11.226,0,0,1,11.143,22.287Zm0-19.452A8.27,8.27,0,0,0,6.5,4.254a8.333,8.333,0,0,0-3.01,3.655,8.3,8.3,0,0,0,.766,7.879A8.333,8.333,0,0,0,7.909,18.8a8.3,8.3,0,0,0,7.879-.766,8.333,8.333,0,0,0,3.01-3.655A8.3,8.3,0,0,0,18.033,6.5a8.333,8.333,0,0,0-3.655-3.01A8.256,8.256,0,0,0,11.143,2.835Z" transform="translate(6.354 6.353)" fill="url(#linear-gradient)"/>
</svg>
